# xmcd CD database file
#
# Track frame offsets:
#	150
#	20267
#	41635
#	67195
#	99262
#	119845
#	134637
#	152522
#	165034
#	180700
#	207597
#	235092
#	254262
#
# Disc length: 3640 seconds
#
# Revision: 0
# Processed by: cddbd v1.5.1PL0 Copyright (c) Steve Scherf et al.
# Submitted via: CDex 1.51
#
DISCID=b00e360d
DTITLE=Willie Cobbs - Pay Or Do 11 Months and 29 Days
DYEAR=1997
DGENRE=Blues
TTITLE0=11 Months and 29 Days
TTITLE1=Crack Cocaine
TTITLE2=Baby, Please Don't Stop
TTITLE3=Butler Boy Blues
TTITLE4=Feel So Bad
TTITLE5=Key To The Highway
TTITLE6=Jukin
TTITLE7=Candidate
TTITLE8=Testing 1,2,3
TTITLE9=Amnesia
TTITLE10=You Don't Love Me
TTITLE11=Condition
TTITLE12=Who Is He?
EXTD=YEAR: 1997
EXTT0=
EXTT1=
EXTT2=
EXTT3=
EXTT4=
EXTT5=
EXTT6=
EXTT7=
EXTT8=
EXTT9=
EXTT10=
EXTT11=
EXTT12=
PLAYORDER=
